<?xml version="1.0" ?><svg id="outine" viewBox="0 0 48 48" xmlns="http://www.w3.org/2000/svg"><title/><path d="M38.183,34.748,28.254,30.3v-.68h.885a6.841,6.841,0,0,0,6.827-7.279c-.381-5.949-.461-7.565-.461-7.873a9.645,9.645,0,0,0-1.737-6.111L35.45,5.413a.75.75,0,0,0-.215-.982C34.982,4.25,28.981,0,23.824,0S12.666,4.25,12.413,4.431a.752.752,0,0,0-.215.982L13.88,8.357a9.645,9.645,0,0,0-1.737,6.111c0,.258-.06,1.623-.46,7.873a6.84,6.84,0,0,0,6.826,7.279h.9v.685L9.767,34.736a5.771,5.771,0,0,0-3.352,5.231V47.25a.75.75,0,0,0,1.5,0V39.967A4.267,4.267,0,0,1,10.394,36.1l9.483-4.359L23.2,36.984a.75.75,0,0,0,1.268,0l3.324-5.248,9.779,4.381A4.259,4.259,0,0,1,40.085,40V47.25a.75.75,0,0,0,1.5,0V40A5.763,5.763,0,0,0,38.183,34.748Zm-20.341-12.2c1.263-.579,4.159-1.808,6-1.808s4.721,1.227,5.982,1.806a6.6,6.6,0,0,1-11.979,0Zm-.619-2.773v-4.3c.012-.488.221-1.992.983-2.487a17.155,17.155,0,0,0,2.266-1.778A8.64,8.64,0,0,0,24.16,13.79a10.9,10.9,0,0,0,6.28.276v5.708a6.578,6.578,0,0,1-.137,1.34c-1.428-.648-4.4-1.875-6.464-1.875s-5.05,1.23-6.478,1.878A6.607,6.607,0,0,1,17.223,19.774Zm1.286,8.346a5.34,5.34,0,0,1-5.33-5.683c.307-4.8.464-7.479.464-7.969,0-3.424,1.227-4.995,1.562-5.36.28-.094.944-.3,1.881-.532a.75.75,0,1,0-.354-1.458c-.671.163-1.21.318-1.585.433l-1.3-2.277C15.417,4.25,20,1.5,23.824,1.5s8.4,2.75,9.978,3.774L32.5,7.55a30.345,30.345,0,0,0-8.671-1.3A29.591,29.591,0,0,0,19,6.656a.75.75,0,0,0,.246,1.48,28.035,28.035,0,0,1,4.583-.389,28.9,28.9,0,0,1,8.612,1.361c.333.362,1.563,1.931,1.563,5.36,0,.486.152,3.093.465,7.969a5.343,5.343,0,0,1-5.331,5.683h-.885V26.553a8.131,8.131,0,0,0,3.2-4.037l0-.006c0-.01,0-.021.008-.031a8.033,8.033,0,0,0,.475-2.7V13.058a.75.75,0,0,0-1.026-.7,9.613,9.613,0,0,1-6.232.024A6.812,6.812,0,0,1,21.233,9.7a.75.75,0,0,0-1.211-.153,15.561,15.561,0,0,1-2.632,2.181c-1.551,1.006-1.66,3.432-1.667,3.725v4.32A8.025,8.025,0,0,0,16.2,22.5l0,.01,0,0a8.113,8.113,0,0,0,3.2,4.036V28.12Zm5.323,7.062-2.923-4.614V27.313a8.116,8.116,0,0,0,2.938.554,8.03,8.03,0,0,0,2.907-.549v3.25Z"/><path d="M20.352,15.136h-.54a.75.75,0,0,0,0,1.5h.54a.75.75,0,0,0,0-1.5Z"/><path d="M27.058,16.636h.54a.75.75,0,0,0,0-1.5h-.54a.75.75,0,0,0,0,1.5Z"/><path d="M22.691,4.594h.383v.382a.75.75,0,0,0,1.5,0V4.594h.382a.75.75,0,0,0,0-1.5h-.382V2.711a.75.75,0,0,0-1.5,0v.383h-.383a.75.75,0,1,0,0,1.5Z"/><path d="M13.737,43.02a.75.75,0,0,0-.75.75v3.48a.75.75,0,0,0,1.5,0V43.77A.75.75,0,0,0,13.737,43.02Z"/><path d="M33.927,43.02a.75.75,0,0,0-.75.75v3.48a.75.75,0,0,0,1.5,0V43.77A.75.75,0,0,0,33.927,43.02Z"/><path d="M30.56,33.714a.75.75,0,0,0-.859.624l-.662,4.18-2.06-1.463a.75.75,0,0,0-1.182.666l.2,2.761-1.42,1.458V38.614a.75.75,0,0,0-1.5,0v3.309l-1.42-1.443.2-2.759a.75.75,0,0,0-1.182-.666l-2.06,1.463L18,34.547a.75.75,0,0,0-1.482.235l.818,5.164a.749.749,0,0,0,1.176.494L20.252,39.2l-.111,1.507a.749.749,0,0,0,.213.582l2.728,2.771V47.25a.75.75,0,0,0,1.5,0V44.089l2.73-2.8a.749.749,0,0,0,.21-.579L27.411,39.2l1.745,1.239a.749.749,0,0,0,1.176-.494l.852-5.374A.752.752,0,0,0,30.56,33.714Z"/></svg>